<svg xmlns="http://www.w3.org/2000/svg" xmlns:xlink="http://www.w3.org/1999/xlink" width="80" zoomAndPan="magnify" viewBox="0 0 375 374.999991" height="100" preserveAspectRatio="xMidYMid meet" version="1.0"><defs><g/></defs><rect x="-37.5" width="80" fill="none" y="-30" height="100" fill-opacity="1"/><rect x="-37.5" width="80" fill="none" y="-30" height="100" fill-opacity="1"/><g fill="#787E91" fill-opacity="1"><g transform="translate(92.554038, 239.461127)"><g><path d="M 12.839844 -10.078125 L 12.839844 -6.039062 C 12.800781 -4.839844 12.558594 -3.757812 12.121094 -2.839844 C 11.757812 -2.039062 11.199219 -1.28125 10.398438 -0.679688 C 9.597656 -0.0390625 8.519531 0.320312 7.078125 0.320312 C 5.640625 0.320312 4.519531 -0.0390625 3.71875 -0.679688 C 2.917969 -1.28125 2.398438 -2.039062 2.039062 -2.839844 C 1.601562 -3.757812 1.359375 -4.839844 1.320312 -6.039062 L 1.320312 -23.359375 C 1.359375 -24.519531 1.601562 -25.597656 2.039062 -26.519531 C 2.398438 -27.316406 2.917969 -28.117188 3.71875 -28.71875 C 4.519531 -29.316406 5.640625 -29.71875 7.078125 -29.71875 C 8.519531 -29.71875 9.597656 -29.316406 10.398438 -28.71875 C 11.199219 -28.117188 11.757812 -27.316406 12.121094 -26.519531 C 12.558594 -25.597656 12.800781 -24.519531 12.839844 -23.359375 L 12.839844 -19.320312 L 8.800781 -19.320312 L 8.800781 -23.359375 C 8.800781 -24.160156 8.597656 -24.71875 8.160156 -25.199219 C 7.960938 -25.398438 7.597656 -25.519531 7.160156 -25.519531 C 6.398438 -25.519531 6.039062 -24.957031 5.839844 -24.4375 C 5.71875 -24.117188 5.679688 -23.757812 5.640625 -23.359375 L 5.640625 -6.039062 C 5.679688 -5.199219 5.917969 -4.640625 6.320312 -4.199219 C 6.519531 -4 6.800781 -3.878906 7.160156 -3.878906 C 8.078125 -3.878906 8.441406 -4.359375 8.640625 -4.960938 C 8.757812 -5.238281 8.800781 -5.601562 8.800781 -6.039062 L 8.800781 -10.078125 Z M 12.839844 -10.078125 "/></g></g></g><g fill="#787E91" fill-opacity="1"><g transform="translate(111.592654, 239.461127)"><g><path d="M 12.839844 -6.039062 C 12.800781 -4.839844 12.558594 -3.757812 12.121094 -2.839844 C 11.757812 -2.039062 11.199219 -1.28125 10.398438 -0.679688 C 9.597656 -0.0390625 8.519531 0.320312 7.078125 0.320312 C 5.640625 0.320312 4.519531 -0.0390625 3.71875 -0.679688 C 2.917969 -1.28125 2.398438 -2.039062 2.039062 -2.839844 C 1.601562 -3.757812 1.359375 -4.839844 1.320312 -6.039062 L 1.320312 -23.359375 C 1.359375 -24.519531 1.601562 -25.597656 2.039062 -26.519531 C 2.398438 -27.316406 2.917969 -28.117188 3.71875 -28.71875 C 4.519531 -29.316406 5.640625 -29.71875 7.078125 -29.71875 C 8.519531 -29.71875 9.597656 -29.316406 10.398438 -28.71875 C 11.199219 -28.117188 11.757812 -27.316406 12.121094 -26.519531 C 12.558594 -25.597656 12.800781 -24.519531 12.839844 -23.359375 Z M 8.519531 -23.359375 C 8.519531 -24.160156 8.359375 -24.71875 7.960938 -25.199219 C 7.757812 -25.398438 7.441406 -25.519531 7.078125 -25.519531 C 6.320312 -25.519531 5.960938 -24.957031 5.800781 -24.4375 C 5.679688 -24.117188 5.640625 -23.757812 5.640625 -23.359375 L 5.640625 -6.039062 C 5.640625 -5.199219 5.839844 -4.640625 6.238281 -4.199219 C 6.441406 -4 6.71875 -3.878906 7.078125 -3.878906 C 7.839844 -3.878906 8.199219 -4.359375 8.359375 -4.960938 C 8.480469 -5.238281 8.519531 -5.601562 8.519531 -6.039062 Z M 8.519531 -23.359375 "/></g></g></g><g fill="#787E91" fill-opacity="1"><g transform="translate(130.951235, 239.461127)"><g><path d="M 1.601562 0 L 1.601562 -29.398438 L 5 -29.398438 C 9 -29.398438 11.160156 -28.597656 12.320312 -26.359375 C 13.4375 -24.117188 13.597656 -20.4375 13.597656 -14.679688 C 13.597656 -8.917969 13.4375 -5.28125 12.320312 -3.039062 C 11.160156 -0.800781 9 0 5 0 Z M 5.917969 -4.320312 C 7.398438 -4.320312 8.238281 -4.480469 8.679688 -5.917969 C 8.878906 -6.597656 9.039062 -7.640625 9.078125 -9.039062 C 9.121094 -10.4375 9.121094 -12.320312 9.121094 -14.71875 C 9.121094 -17.117188 9.121094 -19 9.078125 -20.398438 C 9.039062 -21.757812 8.878906 -22.796875 8.679688 -23.519531 C 8.238281 -24.917969 7.398438 -25.078125 5.917969 -25.078125 Z M 5.917969 -4.320312 "/></g></g></g><g fill="#787E91" fill-opacity="1"><g transform="translate(151.029738, 239.461127)"><g><path d="M 1.601562 -29.398438 L 11.480469 -29.398438 L 11.480469 -24.957031 L 5.917969 -24.957031 L 5.917969 -17.238281 L 9.917969 -17.238281 L 9.917969 -12.519531 L 5.917969 -12.519531 L 5.917969 -4.441406 L 11.480469 -4.441406 L 11.480469 0 L 1.601562 0 Z M 1.601562 -29.398438 "/></g></g></g><g fill="#787E91" fill-opacity="1"><g transform="translate(168.508504, 239.461127)"><g><path d="M 9.320312 0 L 7.078125 -12.398438 L 5.917969 -12.398438 L 5.917969 0 L 1.601562 0 L 1.601562 -29.398438 L 5.917969 -29.398438 C 11.078125 -29.398438 13.277344 -26.476562 13.277344 -20.917969 C 13.277344 -18 12.519531 -15.359375 10.878906 -14.238281 L 13.640625 0 Z M 5.917969 -16.398438 C 6.519531 -16.398438 7.320312 -16.480469 7.960938 -17.039062 C 8.597656 -17.597656 9.121094 -18.679688 9.121094 -20.757812 C 9.121094 -22.839844 8.597656 -23.957031 7.960938 -24.519531 C 7.320312 -25.078125 6.519531 -25.117188 5.917969 -25.117188 Z M 5.917969 -16.398438 "/></g></g></g><g fill="#eee" fill-opacity="1"><g transform="translate(188.155594, 239.461127)"><g/></g></g><g fill="#eee" fill-opacity="1"><g transform="translate(199.514973, 239.461127)"><g><path d="M 8.757812 -21.519531 C 8.757812 -22.480469 8.71875 -23.558594 8.441406 -24.398438 C 8.160156 -25.199219 7.71875 -25.757812 7.039062 -25.757812 C 5.917969 -25.71875 5.558594 -24.558594 5.558594 -22.839844 C 5.558594 -21.839844 6 -20.796875 6.640625 -19.679688 C 7.28125 -18.558594 8.121094 -17.398438 8.960938 -16.160156 C 9.960938 -14.679688 10.960938 -13.160156 11.71875 -11.679688 C 12.480469 -10.199219 13 -8.679688 13 -7.078125 C 13 -5.121094 12.679688 -3.28125 11.757812 -1.917969 C 10.839844 -0.558594 9.359375 0.320312 7 0.320312 C 4.238281 0.320312 2.679688 -0.71875 1.800781 -2.320312 C 0.921875 -3.917969 0.71875 -6.039062 0.71875 -8.238281 L 4.960938 -8.640625 C 4.960938 -7.398438 5 -6.160156 5.320312 -5.238281 C 5.601562 -4.28125 6.078125 -3.640625 7 -3.640625 C 8.28125 -3.640625 8.757812 -5 8.757812 -6.878906 C 8.757812 -7.839844 8.28125 -8.960938 7.640625 -10.121094 C 7.28125 -10.679688 6.917969 -11.277344 6.519531 -11.878906 C 5.679688 -13.078125 4.757812 -14.4375 3.800781 -15.917969 C 2.839844 -17.398438 2.121094 -18.917969 1.679688 -20.480469 C 1.441406 -21.238281 1.320312 -22.039062 1.320312 -22.839844 C 1.320312 -24.4375 1.679688 -26.160156 2.601562 -27.476562 C 3.519531 -28.757812 4.917969 -29.679688 6.960938 -29.71875 C 9.558594 -29.757812 11.078125 -28.679688 11.917969 -27.117188 C 12.757812 -25.519531 13 -23.558594 13 -21.917969 Z M 8.757812 -21.519531 "/></g></g></g><g fill="#eee" fill-opacity="1"><g transform="translate(218.433598, 239.461127)"><g><path d="M 12.839844 -6.039062 C 12.839844 -5.359375 12.71875 -4.601562 12.480469 -3.757812 C 12.359375 -3.320312 12.160156 -2.917969 11.960938 -2.480469 C 12.320312 -2 12.839844 -1.601562 13.679688 -1.441406 L 13.679688 2.238281 C 11.238281 2.238281 10 1.199219 9.238281 -0.0390625 C 8.640625 0.160156 7.917969 0.320312 7.078125 0.320312 C 5.640625 0.320312 4.519531 -0.0390625 3.71875 -0.679688 C 2.917969 -1.28125 2.398438 -2.039062 2.039062 -2.839844 C 1.601562 -3.757812 1.359375 -4.839844 1.320312 -6.039062 L 1.320312 -23.359375 C 1.359375 -24.519531 1.601562 -25.597656 2.039062 -26.519531 C 2.398438 -27.316406 2.917969 -28.117188 3.71875 -28.71875 C 4.519531 -29.316406 5.640625 -29.71875 7.078125 -29.71875 C 8.519531 -29.71875 9.597656 -29.316406 10.398438 -28.71875 C 11.199219 -28.117188 11.757812 -27.316406 12.121094 -26.519531 C 12.558594 -25.597656 12.800781 -24.519531 12.839844 -23.359375 Z M 8.519531 -23.359375 C 8.519531 -24.160156 8.359375 -24.71875 7.960938 -25.199219 C 7.757812 -25.398438 7.441406 -25.519531 7.078125 -25.519531 C 6.320312 -25.519531 5.960938 -24.957031 5.800781 -24.4375 C 5.679688 -24.117188 5.640625 -23.757812 5.640625 -23.359375 L 5.640625 -6.039062 C 5.640625 -5.199219 5.839844 -4.640625 6.238281 -4.199219 C 6.441406 -4 6.71875 -3.878906 7.078125 -3.878906 C 7.839844 -3.878906 8.199219 -4.359375 8.359375 -4.960938 C 8.480469 -5.238281 8.519531 -5.601562 8.519531 -6.039062 Z M 8.519531 -23.359375 "/></g></g></g><g fill="#eee" fill-opacity="1"><g transform="translate(237.87217, 239.461127)"><g><path d="M 13.078125 -29.398438 L 13.078125 -6.039062 C 13.039062 -4.839844 12.800781 -3.757812 12.359375 -2.839844 C 12 -2.039062 11.4375 -1.28125 10.640625 -0.679688 C 9.839844 -0.0390625 8.757812 0.320312 7.320312 0.320312 C 5.878906 0.320312 4.757812 -0.0390625 3.960938 -0.679688 C 3.160156 -1.28125 2.640625 -2.039062 2.28125 -2.839844 C 1.839844 -3.757812 1.601562 -4.839844 1.558594 -6.039062 L 1.558594 -29.398438 L 5.878906 -29.398438 L 5.878906 -6.039062 C 5.878906 -5.199219 6.078125 -4.640625 6.480469 -4.199219 C 6.679688 -4 6.960938 -3.878906 7.320312 -3.878906 C 8.078125 -3.878906 8.441406 -4.359375 8.597656 -4.960938 C 8.71875 -5.238281 8.757812 -5.601562 8.757812 -6.039062 L 8.757812 -29.398438 Z M 13.078125 -29.398438 "/></g></g></g><g fill="#eee" fill-opacity="1"><g transform="translate(257.710707, 239.461127)"><g><path d="M 0.398438 0 L 4.839844 -29.398438 L 10.121094 -29.398438 L 14.558594 0 L 10.359375 0 L 9.558594 -6 L 5.398438 -6 L 4.601562 0 Z M 7.71875 -19.839844 L 7.597656 -20.597656 L 7.359375 -20.597656 L 7.238281 -19.839844 L 6 -10.558594 L 8.960938 -10.558594 Z M 7.71875 -19.839844 "/></g></g></g><g fill="#eee" fill-opacity="1"><g transform="translate(277.869211, 239.461127)"><g><path d="M 1.601562 0 L 1.601562 -29.398438 L 5 -29.398438 C 9 -29.398438 11.160156 -28.597656 12.320312 -26.359375 C 13.4375 -24.117188 13.597656 -20.4375 13.597656 -14.679688 C 13.597656 -8.917969 13.4375 -5.28125 12.320312 -3.039062 C 11.160156 -0.800781 9 0 5 0 Z M 5.917969 -4.320312 C 7.398438 -4.320312 8.238281 -4.480469 8.679688 -5.917969 C 8.878906 -6.597656 9.039062 -7.640625 9.078125 -9.039062 C 9.121094 -10.4375 9.121094 -12.320312 9.121094 -14.71875 C 9.121094 -17.117188 9.121094 -19 9.078125 -20.398438 C 9.039062 -21.757812 8.878906 -22.796875 8.679688 -23.519531 C 8.238281 -24.917969 7.398438 -25.078125 5.917969 -25.078125 Z M 5.917969 -4.320312 "/></g></g></g><g fill="#b43a3a" fill-opacity="1"><g transform="translate(135.786133, 199.623443)"><g><path d="M 36.582031 -11.765625 C 28.816406 -11.445312 12.328125 -12.246094 12.328125 -32.019531 C 12.328125 -47.226562 22.652344 -53.070312 36.582031 -52.351562 L 36.582031 -38.183594 L 48.828125 -38.183594 L 48.828125 -63.316406 C 48.828125 -63.636719 48.507812 -64.039062 47.949219 -64.039062 L 37.542969 -64.039062 C 21.851562 -64.039062 0 -60.4375 0 -32.019531 C 0 -4.644531 21.613281 0 37.542969 0 L 47.949219 0 C 48.507812 0 48.828125 -0.398438 48.828125 -0.71875 L 48.828125 -11.765625 Z M 36.582031 -11.765625 "/></g></g></g><g fill="#b43a3a" fill-opacity="1"><g transform="translate(187.091183, 199.623443)"><g><path d="M 29.378906 -35.542969 C 24.816406 -37.703125 20.332031 -37.703125 19.933594 -37.703125 C 15.847656 -37.703125 11.925781 -40.105469 11.925781 -44.746094 C 11.925781 -49.871094 15.527344 -52.511719 19.933594 -52.511719 C 24.09375 -52.511719 27.617188 -50.351562 27.777344 -45.789062 C 27.777344 -45.546875 28.175781 -45.148438 28.65625 -45.148438 L 38.664062 -45.148438 C 39.222656 -45.148438 39.625 -45.546875 39.542969 -45.789062 C 39.382812 -56.671875 30.898438 -64.039062 19.933594 -64.039062 C 9.6875 -64.039062 0 -56.753906 0 -44.746094 C 0 -37.300781 3.761719 -31.617188 10.40625 -28.578125 C 15.050781 -26.414062 19.371094 -26.414062 19.933594 -26.414062 C 23.535156 -26.253906 27.9375 -23.375 27.9375 -18.652344 C 27.9375 -14.410156 24.175781 -11.527344 19.933594 -11.527344 C 19.933594 -11.527344 19.933594 -11.527344 19.851562 -11.527344 L 19.851562 0 C 19.933594 0 19.933594 0 19.933594 0 C 30.179688 0 39.785156 -6.644531 39.785156 -18.652344 C 39.785156 -26.175781 36.101562 -32.417969 29.378906 -35.542969 Z M 29.378906 -35.542969 "/></g></g></g></svg>